<?xml version="1.0" encoding="UTF-8"?>
<svg version="1.1" xmlns="http://www.w3.org/2000/svg" width="512" height="512">
<path d="M0 0 C0.63502441 0.20898926 1.27004883 0.41797852 1.92431641 0.63330078 C16.32039095 5.47307905 28.12370121 13.44751396 39 24 C39.68449219 24.61101563 40.36898437 25.22203125 41.07421875 25.8515625 C54.32963261 38.09133561 62.64958652 56.79509845 67 74 C67.22558594 74.88042969 67.45117188 75.76085937 67.68359375 76.66796875 C73.04866366 102.30930288 67.76354816 129.91430644 54 152 C46.47881047 163.01001022 37.71315043 172.06433302 27 180 C30.38152012 182.83432868 33.75637532 185.07591914 37.625 187.1875 C43.99968277 190.84471972 49.45609766 195.20041788 55 200 C55.7321875 200.60972656 56.464375 201.21945313 57.21875 201.84765625 C76.77068552 218.35400181 89.81456923 242.43848655 96 267 C96.26466064 268.04655762 96.26466064 268.04655762 96.53466797 269.11425781 C99.54561473 281.64146743 99.33128163 294.18534719 99 307 C100.18980469 307.12117188 101.37960937 307.24234375 102.60546875 307.3671875 C118.93384798 309.4284344 132.67268262 319.71495015 143 332 C154.54123476 347.34372767 159.1693363 366.07601571 156.73193359 385.09130859 C153.43067593 404.3525361 143.29679261 420.87285593 127.5 432.41015625 C109.97212542 443.55678899 90.09172545 447.33676368 69.5625 443 C52.15110887 437.52567615 39.66272918 427.6826351 29 413 C25.99334636 408.93562489 25.99334636 408.93562489 22 406 C18.95015693 405.89785981 15.92234269 405.85636189 12.87207031 405.8581543 C11.9255661 405.85467987 10.97906189 405.85120544 10.00387573 405.84762573 C7.94350017 405.84026137 5.88311663 405.83491962 3.82273102 405.83133507 C0.56117789 405.82418158 -2.70022373 405.8085229 -5.96173096 405.78999329 C-15.23683582 405.73747432 -24.51185905 405.68954875 -33.78710938 405.67407227 C-39.45650806 405.66399099 -45.12552789 405.6346603 -50.79477692 405.59275246 C-52.95567204 405.58043752 -55.11662068 405.57532209 -57.27754974 405.57755089 C-60.30360826 405.57990366 -63.32858047 405.55773776 -66.35449219 405.5300293 C-67.24615082 405.53663071 -68.13780945 405.54323212 -69.05648804 405.55003357 C-74.54147145 405.46763669 -77.61268953 404.59368769 -82 401 C-82.62269775 400.50757813 -83.24539551 400.01515625 -83.88696289 399.5078125 C-84.4102417 399.05148437 -84.93352051 398.59515625 -85.47265625 398.125 C-86.06240234 397.61453125 -86.65214844 397.1040625 -87.25976562 396.578125 C-87.85466797 396.05734375 -88.44957031 395.5365625 -89.0625 395 C-90.26104718 393.95756069 -91.4602539 392.91587915 -92.66015625 391.875 C-93.18230713 391.41867187 -93.70445801 390.96234375 -94.24243164 390.4921875 C-95.11242798 389.75355469 -95.11242798 389.75355469 -96 389 C-96.63929443 388.29109619 -97.27858887 387.58219238 -97.93725586 386.85180664 C-102.81880926 383.90030544 -107.74900407 384.45668217 -113.34375 384.49609375 C-114.54559937 384.48667252 -115.74744873 384.47725128 -116.98571777 384.46754456 C-120.82398539 384.43887124 -124.66163385 384.43581756 -128.5 384.4375 C-132.33827571 384.43389486 -136.17610083 384.42438852 -140.01428223 384.39674377 C-142.40151257 384.37993074 -144.78889146 384.37709869 -147.17614746 384.38975525 C-148.26077271 384.38287186 -149.34539795 384.37598846 -150.46289062 384.36889648 C-151.88921814 384.37033913 -151.88921814 384.37033913 -153.34436035 384.37181091 C-156.54863288 383.92318698 -158.39843456 382.90008409 -161 381 C-163.57010603 377.14484096 -163.28814332 373.96974284 -163.2746582 369.49975586 C-163.27976913 368.63090256 -163.28488007 367.76204926 -163.29014587 366.86686707 C-163.30408521 363.98278977 -163.3030794 361.09895084 -163.30078125 358.21484375 C-163.30467076 356.19958915 -163.30900596 354.18433537 -163.31376648 352.16908264 C-163.32124159 347.93129839 -163.32093169 343.69359737 -163.31567383 339.45581055 C-163.30993034 334.0733578 -163.32667852 328.69125493 -163.3500185 323.30885983 C-163.36490351 319.13646002 -163.3656068 314.96414111 -163.36250877 310.79171944 C-163.36301637 308.81096272 -163.36814639 306.83020079 -163.37832069 304.84947014 C-163.55355775 265.90141783 -151.19550297 232.50712155 -123.8125 204.4375 C-113.84377519 194.48048244 -102.05284928 187.16764126 -90 180 C-90.54527344 179.5875 -91.09054688 179.175 -91.65234375 178.75 C-94.12233293 176.85845273 -96.56559591 174.93713252 -99 173 C-99.7425 172.40960938 -100.485 171.81921875 -101.25 171.2109375 C-119.16060465 156.17882288 -129.73790014 133.37465895 -132.72265625 110.40625 C-135.15570957 80.52424297 -127.13580703 52.22416936 -108 29 C-81.8697746 -0.86311475 -37.7509679 -12.76929473 0 0 Z M-92.5 38.0625 C-108.46880048 54.38914474 -116.25969168 75.82144987 -116.2487793 98.47119141 C-115.94397223 121.50057152 -106.3651581 142.01542698 -90 158 C-73.49089499 173.70769215 -52.31782278 181.70574497 -29.58203125 181.2734375 C-11.30319929 180.4712815 6.72801586 174.59750671 21 163 C21.82886719 162.33355469 22.65773438 161.66710937 23.51171875 160.98046875 C39.88470885 147.06468084 49.56878758 127.26164071 52 106 C53.52226782 81.76907817 47.86442795 59.39605407 31.625 40.8125 C30.10118526 39.191366 28.55992915 37.58641352 27 36 C25.96939453 34.95005859 25.96939453 34.95005859 24.91796875 33.87890625 C12.47530361 22.03644388 -4.13232268 15.3864238 -21 13 C-21.88429688 12.8659375 -22.76859375 12.731875 -23.6796875 12.59375 C-49.71890972 9.48880209 -73.8421843 20.41251645 -92.5 38.0625 Z M-77.625 193.8125 C-78.31231201 194.1336377 -78.99962402 194.45477539 -79.70776367 194.78564453 C-91.20341379 200.32141904 -101.43337638 207.58011452 -111 216 C-111.60972656 216.5259375 -112.21945313 217.051875 -112.84765625 217.59375 C-125.53785441 229.35393363 -134.7195617 245.66376347 -140.3125 261.875 C-140.65825073 262.86173706 -140.65825073 262.86173706 -141.01098633 263.8684082 C-145.56951188 278.00268336 -146.43483578 292.21950984 -146.29296875 306.94140625 C-146.28735403 308.68830495 -146.28309285 310.43520847 -146.28010559 312.18211365 C-146.26880411 316.71778049 -146.23946894 321.25314616 -146.20599365 325.78869629 C-146.17497042 330.44177174 -146.16153228 335.0948972 -146.14648438 339.74804688 C-146.1145807 348.83216155 -146.06356911 357.91605546 -146 367 C-120.67349909 369.92394267 -120.67349909 369.92394267 -97.64428711 362.43212891 C-95.22567926 360.12124944 -93.02854376 357.69666205 -90.86361694 355.14912415 C-90.24862335 354.43991318 -89.63362976 353.73070221 -89 353 C-88.35511124 352.23480545 -87.71022247 351.4696109 -87.04579163 350.68122864 C-80.1492239 343.78555051 -74.4254803 343.01876102 -64.9820261 342.89684772 C-61.89855417 342.9050637 -58.81740154 342.95633726 -55.734375 343.0078125 C-53.5696814 343.00977989 -51.40497974 343.00733616 -49.24029541 343.0007019 C-43.56742898 342.99310396 -37.89617602 343.03640125 -32.22363281 343.09332275 C-23.13251604 343.17622776 -14.04108537 343.1826412 -4.94965363 343.18636703 C-1.78361418 343.19517551 1.38157807 343.226578 4.54742432 343.26150513 C6.49287682 343.27134298 8.43833174 343.28071633 10.38378906 343.28955078 C11.25771301 343.30512527 12.13163696 343.32069977 13.03204346 343.33674622 C19.20230331 343.34027724 24.2011957 342.50448559 28.96875 338.23828125 C29.4740625 337.60277344 29.979375 336.96726562 30.5 336.3125 C31.08265625 335.60738281 31.6653125 334.90226563 32.265625 334.17578125 C33.38029982 332.77741667 34.49489025 331.37898481 35.609375 329.98046875 C46.18333092 317.21619338 60.49295413 310.42530657 76.52783203 307.37988281 C78.37240712 307.01071202 80.19082798 306.51540366 82 306 C87.47110325 289.58669025 78.95769023 265.46465877 71.81640625 250.58203125 C67.13681501 241.23035212 61.80518881 232.94365085 55 225 C54.00226563 223.78376953 54.00226563 223.78376953 52.984375 222.54296875 C43.27616171 211.12682905 31.24739634 202.81513453 18 196 C16.95714844 195.43667969 15.91429687 194.87335938 14.83984375 194.29296875 C9.78295007 191.81998462 6.27771999 190.44301181 0.75 192 C-0.15492188 192.31582031 -1.05984375 192.63164062 -1.9921875 192.95703125 C-21.63901242 199.76963158 -44.46239295 198.71350713 -64.08105469 192.32202148 C-69.39513302 190.66024614 -72.79086766 191.43155475 -77.625 193.8125 Z M51.13671875 337.6875 C47.90835871 340.77985374 45.20557175 344.02135364 42.5625 347.625 C38.64142521 352.81179419 34.15422287 355.94859238 28 358 C24.94826765 358.06433806 21.92031829 358.07048586 18.86962891 358.03076172 C16.93039261 358.01465413 14.99115288 357.99895706 13.0519104 357.98361206 C11.50703886 357.9693046 11.50703886 357.9693046 9.93095779 357.9547081 C3.31888888 357.90307966 -3.29343768 357.90892392 -9.90567589 357.90334892 C-15.70901714 357.89515061 -21.51101296 357.86754593 -27.31396484 357.79785156 C-32.93310926 357.7314915 -38.55011571 357.71945441 -44.16957474 357.74310684 C-46.3024808 357.74249955 -48.4354786 357.72260576 -50.56800461 357.68233871 C-65.25979112 357.31465711 -65.25979112 357.31465711 -77.66259766 364.32861328 C-79.54407044 366.15413223 -81.25681924 368.03328254 -83 370 C-84.32738337 371.33925686 -85.6582898 372.6750965 -87 374 C-85.45964394 375.39727951 -83.91764536 376.79274837 -82.375 378.1875 C-81.51648438 378.96480469 -80.65796875 379.74210937 -79.7734375 380.54296875 C-78.85820312 381.35378906 -77.94296875 382.16460937 -77 383 C-75.71848808 384.29507729 -75.71848808 384.29507729 -74.41108704 385.61631775 C-70.43918243 388.88948317 -66.61921152 388.68191697 -61.64916992 388.59594727 C-60.72640762 388.6000058 -59.80364532 388.60406433 -58.85292053 388.60824585 C-56.85591303 388.61375213 -54.8588478 388.60778546 -52.86189842 388.59158516 C-49.69546886 388.56612483 -46.53033866 388.5709775 -43.36384583 388.58348083 C-36.63825401 388.60421618 -29.91306521 388.58456479 -23.1875 388.5625 C-15.40143608 388.54136225 -7.61579202 388.53690527 0.17026329 388.56300163 C3.27964875 388.56634984 6.38822314 388.54518072 9.49751282 388.52259827 C11.41867241 388.52511126 13.33983102 388.52867302 15.26098633 388.53344727 C16.54481705 388.51411888 16.54481705 388.51411888 17.85458374 388.49440002 C25.67607824 388.55885476 32.64710031 391.12556083 38.55078125 396.3984375 C40.3536998 398.39088118 41.80700714 400.52448882 43.3125 402.75 C52.05395631 415.63214614 63.58175478 424.0394308 79 427 C94.17443846 428.70023763 108.18493494 425.33822262 120.4921875 416.13671875 C131.1037144 407.31528226 138.72603483 394.84389496 140.21875 380.96630859 C141.36054367 365.31303097 136.74479398 353.72043839 127.875 340.9375 C117.80084437 329.60809814 104.49682516 323.7283204 89.66796875 322.15625 C74.5651485 321.51289237 62.08998811 327.76755794 51.13671875 337.6875 Z " fill="#278FFF" transform="translate(259,36)"/>
<path d="M0 0 C7.83411948 5.64243129 12.57346529 12.41509905 14.625 21.890625 C15.77320901 31.01649455 14.32390733 39.52537824 9.046875 47.1796875 C1.61741545 56.11511858 -6.3532669 60.04623204 -17.9375 61.265625 C-27.28524651 60.24587084 -35.66379563 56.95156943 -42.1640625 49.96875 C-48.25474154 42.22788698 -51.31319983 33.82859352 -50.375 23.890625 C-48.66714102 14.91712867 -44.70255967 7.26069224 -37.5 1.515625 C-26.11249371 -6.16134553 -11.9628335 -6.95664774 0 0 Z M-28.18359375 16.37109375 C-31.52911102 19.87706749 -33.28819946 23.03179619 -33.54296875 27.91015625 C-33.1352481 32.71746717 -31.06196742 36.05512408 -28.0625 39.703125 C-24.02493194 42.98951761 -21.07465888 43.9513271 -15.875 43.765625 C-10.57639955 42.44097489 -6.9855252 40.22890583 -4 35.640625 C-2.05625456 31.79414141 -1.44274507 28.1179189 -2.375 23.890625 C-4.55340751 18.90885701 -7.22974922 15.02402166 -12.375 12.890625 C-18.36368056 11.02747994 -23.3982475 12.45393126 -28.18359375 16.37109375 Z " fill="#426EFF" transform="translate(364.375,383.109375)"/>
</svg>
